<?xml version="1.0" standalone="no"?>
<!DOCTYPE svg PUBLIC "-//W3C//DTD SVG 20010904//EN"
 "http://www.w3.org/TR/2001/REC-SVG-20010904/DTD/svg10.dtd">
<svg version="1.0" xmlns="http://www.w3.org/2000/svg"
 width="48.000000pt" height="48.000000pt" viewBox="0 0 48.000000 48.000000"
 preserveAspectRatio="xMidYMid meet">
<metadata>
Created by potrace 1.16, written by Peter Selinger 2001-2019
</metadata>
<g transform="translate(0.000000,48.000000) scale(0.100000,-0.100000)"
fill="#000000" stroke="none">
<path d="M121 433 c-6 -21 -11 -46 -11 -55 0 -9 -7 -43 -15 -75 -24 -93 -20
-153 14 -200 36 -50 88 -83 131 -83 43 0 95 33 131 83 34 47 38 107 14 200 -8
32 -15 66 -15 75 0 9 -5 34 -11 55 -14 52 -42 50 -77 -8 -15 -24 -34 -44 -42
-44 -8 0 -27 20 -42 44 -35 58 -63 60 -77 8z m105 -148 c3 -14 4 -34 1 -45 -4
-15 0 -20 13 -20 13 0 17 5 13 20 -9 32 5 70 26 70 20 0 91 -84 91 -108 0 -17
-53 -105 -84 -140 -25 -28 -67 -28 -92 0 -31 35 -84 123 -84 140 0 24 71 108
91 108 12 0 21 -10 25 -25z"/>
</g>
</svg>
